<svg width="77" height="72" viewBox="0 0 77 72" fill="none" xmlns="http://www.w3.org/2000/svg">
<g clip-path="url(#clip0_290_7102)">
<path d="M65.2943 64.5551C65.4497 64.4235 65.5921 64.2919 65.7345 64.1472C65.9288 63.963 66.123 63.7788 66.3173 63.5814C66.4597 63.4498 66.5892 63.305 66.7187 63.1735C66.9129 62.9629 67.0942 62.7524 67.2885 62.5419C67.405 62.4103 67.5216 62.2655 67.6381 62.1339C67.8453 61.8971 68.0266 61.6471 68.2208 61.3839C68.3115 61.2655 68.4151 61.1339 68.5057 61.0155C68.7777 60.6339 69.0496 60.2391 70.1891 58.5285L73.2452 53.4099C72.1057 55.1073 72.7013 53.673 72.5071 53.8836C72.3776 54.0283 72.2352 54.1599 72.0927 54.2915C71.8985 54.4889 71.7172 54.6862 71.5229 54.8573C71.3676 55.0021 71.2251 55.1336 71.0827 55.2521C70.8884 55.4231 70.6812 55.6073 70.487 55.7784C70.3316 55.91 70.1633 56.0284 70.0079 56.16C69.8007 56.3179 69.5935 56.489 69.3863 56.6469C69.2309 56.7653 69.0496 56.8837 68.8813 57.0021C68.6611 57.1469 68.4539 57.2916 68.2338 57.4364C68.0525 57.5548 67.8841 57.6601 67.6899 57.7653C67.4698 57.8969 67.2496 58.0417 67.0165 58.1601C66.8352 58.2654 66.641 58.3706 66.4468 58.4627C66.2137 58.5812 65.9806 58.6996 65.7475 58.818C65.5532 58.9101 65.372 59.0022 65.1648 59.0943C64.9317 59.1996 64.6856 59.3049 64.4396 59.4101C64.2453 59.4891 64.0382 59.5812 63.8439 59.6602C63.5979 59.7654 63.3389 59.8575 63.0928 59.9365C62.8857 60.0154 62.6914 60.0812 62.4842 60.147C62.2252 60.2391 61.9533 60.3181 61.6943 60.397C61.4871 60.4628 61.2929 60.5155 61.0727 60.5812C60.8008 60.647 60.5289 60.726 60.2569 60.7918C60.0497 60.8444 59.8425 60.897 59.6353 60.9497C59.3505 61.0155 59.0656 61.0681 58.7807 61.1207C58.5735 61.1602 58.3663 61.2129 58.1591 61.2392C57.8613 61.2918 57.5634 61.3313 57.2526 61.3839C57.0584 61.4102 56.8512 61.4497 56.644 61.476C56.3203 61.5155 55.9965 61.5418 55.6858 61.5813C55.4915 61.5944 55.2973 61.6208 55.116 61.6471C54.7534 61.6734 54.3908 61.6997 54.0282 61.7129C53.8728 61.7129 53.7174 61.7392 53.5491 61.7523C53.07 61.7655 52.5779 61.7787 52.0988 61.7655C52.0599 61.7655 52.0081 61.7787 51.9693 61.7655C51.4254 61.7655 50.8815 61.7655 50.3376 61.726C50.247 61.726 50.1693 61.726 50.0657 61.7129C49.6125 61.6866 49.1592 61.6602 48.706 61.6208C48.5377 61.6076 48.3564 61.5813 48.188 61.5681C47.7995 61.5287 47.437 61.4892 47.0485 61.4365C46.8413 61.4102 46.6341 61.3839 46.4269 61.3576C46.0773 61.305 45.7276 61.2523 45.378 61.1997C45.1578 61.1602 44.9377 61.1207 44.7176 61.0681C44.3809 61.0023 44.0442 60.9497 43.7075 60.8707C43.4874 60.8313 43.2413 60.7655 43.0212 60.7128C42.6845 60.6339 42.3608 60.5681 42.0241 60.476C41.778 60.4233 41.5579 60.3575 41.3119 60.2918C40.9752 60.1996 40.6514 60.1075 40.3277 60.0154C40.0817 59.9365 39.8356 59.8707 39.6025 59.7917C39.2788 59.6865 38.9551 59.5944 38.6313 59.4891C38.3853 59.4101 38.1392 59.318 37.8932 59.2391C37.5695 59.1338 37.2587 59.0154 36.9349 58.897C36.6889 58.8048 36.4429 58.7127 36.1968 58.6206C35.8731 58.5022 35.5623 58.3706 35.2386 58.239C34.9925 58.1338 34.7465 58.0285 34.5004 57.9232C34.1767 57.7785 33.8659 57.6337 33.5422 57.489C33.2961 57.3706 33.0501 57.2653 32.817 57.1469C32.4933 57.0021 32.1695 56.8442 31.8588 56.6732C31.6257 56.5548 31.3796 56.4363 31.1465 56.3047C30.9393 56.1995 30.7322 56.081 30.512 55.9626C29.6703 55.5021 28.8415 55.0415 27.9998 54.5283C27.4559 54.1862 26.925 53.8441 26.407 53.502C26.2387 53.3836 26.0703 53.2651 25.902 53.1599C25.5394 52.923 25.1898 52.6862 24.8531 52.4361C24.6589 52.3046 24.4646 52.1598 24.2704 52.0151C23.9596 51.7914 23.6488 51.5545 23.351 51.3308C23.1567 51.1729 22.9625 51.015 22.7682 50.8703C22.4704 50.6466 22.1855 50.4097 21.9006 50.1729C21.7064 50.015 21.5121 49.8439 21.3308 49.686C21.046 49.4492 20.774 49.2123 20.515 48.9623C20.3337 48.8044 20.1524 48.6334 19.9712 48.4755C19.6992 48.2254 19.4273 47.9623 19.1553 47.7123C18.987 47.5544 18.8316 47.3965 18.6633 47.2386C18.3784 46.9491 18.0935 46.6727 17.8215 46.3833C17.6791 46.2517 17.5496 46.1069 17.4201 45.9622C17.0446 45.5674 16.682 45.1727 16.3324 44.7648C16.2935 44.7253 16.2676 44.699 16.2288 44.6595C15.8403 44.2253 15.4647 43.7647 15.1022 43.3173C14.9986 43.1857 14.9079 43.0542 14.8043 42.9357C14.5453 42.6068 14.2863 42.2778 14.0403 41.962C13.9238 41.7909 13.7943 41.6199 13.6777 41.4488C13.4576 41.1593 13.2504 40.883 13.0432 40.5804C12.9137 40.3962 12.7842 40.2119 12.6677 40.0277C12.4734 39.7382 12.2792 39.4487 12.0979 39.1724C11.9813 38.9882 11.8518 38.7908 11.7353 38.6066C11.554 38.3171 11.3857 38.0276 11.2173 37.7513C11.1008 37.5539 10.9972 37.3697 10.8806 37.1723C10.7123 36.8828 10.5569 36.5934 10.4015 36.2907C10.2979 36.1065 10.1943 35.9091 10.1037 35.7381C9.94827 35.4223 9.79288 35.1064 9.63748 34.7775C9.55979 34.6064 9.48209 34.4485 9.39145 34.2775C9.21015 33.8827 9.04181 33.488 8.86052 33.08C8.82167 33.0011 8.78282 32.909 8.74397 32.8169C8.53678 32.33 8.35549 31.83 8.1742 31.3431C8.1224 31.2115 8.08355 31.08 8.03175 30.9484C7.90226 30.5931 7.78571 30.2378 7.66917 29.8694C7.61737 29.6983 7.56557 29.5009 7.51377 29.3299C7.42313 29.0272 7.33248 28.7114 7.24183 28.4088C7.19004 28.2114 7.15119 28.014 7.08644 27.8035C7.02169 27.514 6.95695 27.2114 6.87925 26.9219C6.8404 26.7245 6.80155 26.514 6.74976 26.3166C6.69796 26.0271 6.64616 25.7376 6.59436 25.4481C6.56846 25.2508 6.52961 25.0402 6.50372 24.8428C6.46487 24.5534 6.42602 24.2639 6.38717 23.9612C6.36127 23.7638 6.33537 23.5665 6.32242 23.3691C6.29653 23.0664 6.27063 22.7638 6.25768 22.4612C6.24473 22.2769 6.23178 22.0927 6.21883 21.9217C6.20588 21.5664 6.20588 21.2111 6.19293 20.8558C6.19293 20.7242 6.19293 20.6058 6.19293 20.4742C6.19293 20.0005 6.21883 19.5268 6.24473 19.0531C6.24473 18.9347 6.25768 18.8031 6.28358 18.6847C6.30947 18.3294 6.33537 17.9873 6.38717 17.6452C6.40012 17.4741 6.43897 17.2899 6.46487 17.1188C6.50372 16.8293 6.54256 16.5398 6.60731 16.2504C6.64616 16.0661 6.68501 15.8688 6.72386 15.6845C6.77565 15.4214 6.82745 15.1451 6.90515 14.8819C6.95695 14.6845 6.9958 14.5003 7.06054 14.3029C7.13824 14.0397 7.20299 13.7766 7.29363 13.5134C7.35838 13.3292 7.41018 13.145 7.47493 12.9739C7.56557 12.7107 7.66917 12.4476 7.77276 12.1712C7.83751 12.0002 7.90226 11.8291 7.967 11.6712C8.08355 11.3817 8.21304 11.1054 8.34254 10.8291C8.40729 10.6843 8.47203 10.5396 8.53678 10.3948C8.74397 9.98693 7.17709 12.3423 7.41018 11.9344L3.4088 18.4478C3.1757 18.8557 2.96851 19.2636 2.76132 19.6847C2.69658 19.8295 2.63183 19.9742 2.56708 20.119C2.45054 20.3953 2.32104 20.6716 2.2045 20.9611C2.13975 21.1322 2.075 21.3032 1.9973 21.4611C1.89371 21.7243 1.79011 22.0006 1.69947 22.2638C1.63472 22.4348 1.58292 22.6191 1.51817 22.8033C1.47933 22.9349 1.42753 23.0533 1.38868 23.1849C1.34983 23.3165 1.32393 23.4612 1.28508 23.5928C1.23329 23.777 1.18149 23.9744 1.12969 24.1586C1.06494 24.4218 1.01315 24.6981 0.948398 24.9744C0.90955 25.1586 0.870702 25.356 0.831853 25.5402C0.780055 25.8297 0.741207 26.1192 0.689409 26.4087C0.66351 26.5798 0.637611 26.7508 0.611712 26.9219C0.572864 27.2772 0.534016 27.6324 0.508117 27.9877C0.508117 28.1061 0.482218 28.2246 0.482218 28.3298C0.456319 28.8035 0.43042 29.2772 0.43042 29.7509C0.43042 29.8694 0.43042 30.001 0.43042 30.1194C0.43042 30.4747 0.43042 30.8299 0.443369 31.1984C0.443369 31.3694 0.469268 31.5537 0.469268 31.7247C0.495167 32.0405 0.521066 32.3432 0.534016 32.6458C0.559914 32.8432 0.572864 33.0406 0.598763 33.2379C0.637611 33.5274 0.66351 33.8169 0.715308 34.1196C0.741207 34.3169 0.780055 34.5143 0.818904 34.7248C0.857752 35.0143 0.90955 35.3038 0.974297 35.5933C1.01315 35.7907 1.05199 36.0012 1.09084 36.1986C1.15559 36.5012 1.23329 36.7907 1.29803 37.0934C1.34983 37.2908 1.38868 37.4881 1.44048 37.6855C1.51817 38.0013 1.62177 38.3171 1.69947 38.6198C1.75126 38.804 1.80306 38.975 1.86781 39.1593C1.98435 39.5277 2.11385 39.883 2.23039 40.2382C2.26924 40.3698 2.30809 40.5014 2.35989 40.6198C2.54118 41.1067 2.73542 41.6067 2.92967 42.0936C2.96851 42.1857 3.00736 42.2647 3.04621 42.3568C3.2016 42.7515 3.3829 43.1594 3.56419 43.5542C3.64189 43.7252 3.71958 43.8831 3.79728 44.0542C3.95267 44.3832 4.10807 44.6858 4.27641 45.0016C4.38 45.1858 4.47065 45.3701 4.57425 45.5543C4.72964 45.8569 4.88503 46.1464 5.05338 46.4359C5.15697 46.6333 5.27352 46.8306 5.39006 47.0149C5.55841 47.3043 5.72675 47.5807 5.90804 47.8702C6.02459 48.0675 6.14113 48.2649 6.27063 48.4491C6.45192 48.7386 6.63321 49.0149 6.82745 49.3044C6.95695 49.4887 7.08644 49.6729 7.21594 49.8571C7.41018 50.1466 7.63032 50.4361 7.83751 50.7255C7.967 50.8966 8.08355 51.0677 8.21304 51.2387C8.44613 51.5677 8.70512 51.8703 8.95116 52.1861C9.06771 52.3177 9.1713 52.4625 9.2749 52.5941C9.65043 53.0414 10.013 53.4888 10.4015 53.9362C10.4404 53.9889 10.4921 54.0283 10.531 54.081C10.8806 54.4757 11.2303 54.8573 11.5799 55.2389C11.7223 55.3836 11.8648 55.5284 12.0072 55.6731C12.2792 55.9626 12.5511 56.2389 12.8231 56.5153C12.9914 56.6732 13.1597 56.8311 13.3281 57.0021C13.5871 57.2522 13.859 57.5153 14.1309 57.7653C14.3122 57.9364 14.4935 58.0943 14.6748 58.2654C14.9468 58.5154 15.2187 58.7391 15.4906 58.9891C15.6849 59.1601 15.8791 59.318 16.0734 59.4759C16.3453 59.7128 16.6302 59.9365 16.9151 60.1602C17.1223 60.3181 17.3165 60.476 17.5108 60.6339C17.8086 60.8707 18.1064 61.0944 18.4172 61.3181C18.6115 61.4629 18.8057 61.6076 18.9999 61.7523C19.3366 62.0024 19.6863 62.2392 20.0359 62.4761C20.2042 62.5945 20.3726 62.7129 20.5539 62.8313C21.0719 63.1735 21.6157 63.5156 22.1596 63.8577C22.9884 64.3709 23.8301 64.8446 24.6589 65.292C24.7625 65.3446 24.8531 65.4104 24.9567 65.463C25.0603 65.5288 25.1768 65.5815 25.2934 65.6341C25.5394 65.7657 25.7725 65.8841 26.0186 66.0025C26.3293 66.1604 26.6531 66.3183 26.9639 66.4762C27.2099 66.5947 27.4559 66.6999 27.702 66.8184C28.0128 66.9631 28.3236 67.1078 28.6473 67.2394C28.8933 67.3447 29.1523 67.45 29.3984 67.5552C29.7091 67.6868 30.0199 67.8052 30.3437 67.9368C30.5897 68.0289 30.8487 68.1342 31.0947 68.2263C31.4185 68.3447 31.7293 68.4632 32.053 68.5684C32.299 68.6605 32.5451 68.7395 32.8041 68.8184C33.1149 68.9237 33.4386 69.029 33.7494 69.1211C33.9954 69.2 34.2415 69.279 34.5004 69.3448C34.8112 69.4369 35.135 69.529 35.4458 69.608C35.6918 69.6737 35.9378 69.7395 36.1839 69.8053C36.5076 69.8843 36.8184 69.9632 37.1421 70.029C37.3752 70.0817 37.6213 70.1343 37.8544 70.1869C38.1781 70.2527 38.5148 70.3185 38.8385 70.3711C39.0716 70.4106 39.3047 70.4633 39.5378 70.5027C39.8745 70.5554 40.2112 70.608 40.5478 70.6606C40.755 70.6869 40.9881 70.7264 41.1953 70.7527C41.5579 70.8054 41.9075 70.8317 42.2701 70.8712C42.4644 70.8975 42.6586 70.9106 42.8528 70.937C43.2802 70.9764 43.6946 71.0028 44.1219 71.0291C44.2384 71.0291 44.3679 71.0422 44.4845 71.0554C45.0284 71.0817 45.5722 71.0949 46.1161 71.0949C46.1938 71.0949 46.2715 71.0949 46.3622 71.0949C46.8154 71.0949 47.2557 71.0949 47.6959 71.0685C47.8772 71.0685 48.0456 71.0422 48.2269 71.0422C48.5765 71.0159 48.9261 71.0028 49.2628 70.9764C49.47 70.9501 49.6643 70.937 49.8715 70.9106C50.1822 70.8843 50.493 70.8449 50.8038 70.8054C51.011 70.7791 51.2311 70.7396 51.4383 70.7133C51.7232 70.6738 52.0211 70.6343 52.3189 70.5685C52.539 70.529 52.7462 70.4896 52.9664 70.4501C53.2383 70.3975 53.5232 70.3448 53.7951 70.279C54.0023 70.2264 54.2225 70.1738 54.4297 70.1211C54.7016 70.0553 54.9735 69.9896 55.2325 69.9106C55.4397 69.8448 55.6599 69.7922 55.8671 69.7264C56.126 69.6474 56.385 69.5685 56.644 69.4764C56.8512 69.4106 57.0584 69.3316 57.2656 69.2527C57.5116 69.1606 57.7706 69.0685 58.0167 68.9763C58.2239 68.8974 58.4181 68.8184 58.6123 68.7263C58.8584 68.6211 59.1044 68.5158 59.3375 68.3974C59.5317 68.3053 59.726 68.2132 59.9332 68.121C60.1663 68.0026 60.3864 67.8842 60.6195 67.7658C60.8008 67.6605 60.995 67.5552 61.1893 67.4631C61.4094 67.3315 61.6296 67.2 61.8626 67.0684C62.0439 66.9631 62.2252 66.8578 62.3936 66.7394C62.6137 66.5947 62.8209 66.4499 63.0411 66.3052C63.2094 66.1867 63.3907 66.0683 63.559 65.9499C63.7662 65.792 63.9734 65.6341 64.1806 65.4762C64.336 65.3446 64.5043 65.2262 64.6727 65.0946C64.8799 64.9235 65.0741 64.7525 65.2684 64.5814L65.2943 64.5551Z" fill="url(#paint0_linear_290_7102)"/>
<path d="M7.43612 11.9345C15.3612 -1.90819 36.6242 -4.01354 54.9218 7.22379C73.2194 18.4611 81.6236 38.791 73.6985 52.6468C65.7734 66.4895 44.5234 68.5949 26.2258 57.3576C7.9282 46.1071 -0.488944 25.7772 7.43612 11.9345Z" fill="url(#paint1_linear_290_7102)"/>
<path d="M11.295 14.3032C18.3007 2.06583 37.0774 0.223645 53.2512 10.1451C69.4122 20.0798 76.8452 38.0411 69.8395 50.2785C62.8338 62.5027 44.0571 64.3712 27.8962 54.4365C11.7223 44.5019 4.30228 26.5274 11.295 14.3032Z" fill="url(#paint2_linear_290_7102)"/>
<path d="M13.2504 15.2374C19.6474 3.86843 37.0645 2.30258 52.1506 11.7109C67.2496 21.1323 74.2942 37.9752 67.8971 49.3441C61.5001 60.6999 44.0831 62.292 28.997 52.8706C13.9238 43.4491 6.86633 26.6063 13.2634 15.2374H13.2504Z" fill="url(#paint3_linear_290_7102)"/>
<path d="M37.6342 22.3293C37.9838 22.3293 38.3723 22.3687 38.7867 22.4214C39.3435 22.5793 39.8744 22.7372 40.4442 22.9609C41.001 23.2372 41.532 23.5398 42.0759 23.882C42.6068 24.2636 43.073 24.6978 43.5132 25.132L45.4816 23.8951C45.0413 23.4609 44.5751 23.0267 44.0442 22.6451C43.5003 22.3029 42.9694 21.9871 42.4125 21.724C41.8428 21.5003 41.3118 21.3424 40.768 21.1845C40.3536 21.1187 39.9651 21.0792 39.6155 21.0924C39.486 21.0924 39.3565 21.0924 39.2399 21.1187C38.8644 21.1582 38.5147 21.2897 38.1781 21.474L36.2097 22.7109C36.5464 22.5135 36.8831 22.3951 37.2716 22.3424C37.3881 22.3293 37.5176 22.3161 37.6471 22.3161L37.6342 22.3293Z" fill="url(#paint4_linear_290_7102)"/>
<path d="M47.6054 47.2119C47.6054 47.2119 47.6442 47.1856 47.6701 47.1724L49.6514 45.9355C49.6514 45.9355 49.6125 45.9619 49.5866 45.975C49.237 46.1856 48.8744 46.3566 48.5118 46.5145L46.5305 47.7383C46.9061 47.5804 47.2687 47.4093 47.6183 47.2119H47.6054Z" fill="#858161"/>
<path d="M40.7421 34.6065C41.273 34.6854 41.8687 34.8433 42.4903 35.0144C43.0989 35.2381 43.6816 35.5012 44.2384 35.8828C44.7953 36.2644 45.2614 36.7381 45.7147 37.2776C46.1291 37.8566 46.4787 38.5408 46.6859 39.304C46.8672 39.962 46.906 40.5672 46.8024 41.1067C46.6859 41.7252 46.4657 42.2515 46.142 42.6726C45.8442 43.1331 45.4686 43.4621 45.0283 43.7384L47.0096 42.5015C47.4499 42.2252 47.8254 41.8831 48.1233 41.4225C48.46 41.0015 48.6671 40.4883 48.7837 39.8567C48.8873 39.3172 48.8484 38.7251 48.6801 38.0671C48.4729 37.3039 48.1233 36.6197 47.7089 36.0407C47.2686 35.4881 46.7895 35.0275 46.2326 34.6328C45.6758 34.2512 45.0931 33.988 44.4715 33.7643C43.8499 33.5801 43.2672 33.4222 42.7233 33.3432C41.4672 33.1853 40.3277 32.9222 39.3047 32.6064C38.2687 32.3169 37.3105 31.8827 36.4947 31.2642C35.6659 30.6852 34.9407 29.9484 34.3709 29.001C33.7364 28.1062 33.2573 26.9482 32.8818 25.5271C32.5839 24.435 32.4933 23.4218 32.6746 22.4217C32.8041 21.5006 33.1537 20.619 33.6717 19.8427C33.9566 19.4216 34.2932 19.0532 34.6817 18.711V18.7505L36.663 17.5268L35.6011 13.645L33.6199 14.8819L34.6558 18.6321L33.5163 19.3426C32.7652 19.8163 32.1566 20.3822 31.6904 21.0796C31.1595 21.8559 30.8228 22.7375 30.6933 23.6586C30.512 24.6587 30.6027 25.6719 30.9005 26.764C31.289 28.1851 31.7552 29.3431 32.4026 30.2378C32.9854 31.1853 33.6976 31.9221 34.5263 32.5011C35.3422 33.1064 36.3004 33.5538 37.3364 33.8433C38.3594 34.1591 39.4989 34.4354 40.755 34.5801L40.7421 34.6065Z" fill="url(#paint5_linear_290_7102)"/>
<path d="M45.65 50.3967L44.7565 47.1597C43.4745 47.1334 42.2054 46.8834 40.9752 46.357C39.1753 45.6859 37.5954 44.4885 36.1839 42.8174L38.3594 39.7515L36.3782 40.9884L34.2027 44.0543C35.6271 45.7254 37.2069 46.9228 38.994 47.5939C40.2371 48.1203 41.5062 48.3703 42.7752 48.3966L43.6687 51.6467L47.45 51.1599L49.4312 49.923L45.65 50.4098V50.3967Z" fill="url(#paint6_linear_290_7102)"/>
<path d="M39.3694 13.1978L40.4183 17.0663C41.4025 17.1453 42.3866 17.3953 43.3449 17.7637C44.9377 18.4348 46.3362 19.527 47.5794 21.0402L45.4816 23.9219C45.0413 23.4877 44.5751 23.0534 44.0442 22.6719C43.5003 22.3297 42.9694 22.0139 42.4125 21.7508C41.8428 21.5271 41.3118 21.3692 40.768 21.2113C40.3536 21.1455 39.9651 21.106 39.6155 21.1192C39.486 21.1192 39.3565 21.1192 39.2399 21.1455C38.8644 21.1849 38.5148 21.3165 38.1781 21.5007C37.8284 21.7244 37.5435 22.0008 37.3105 22.3166C37.0903 22.685 36.9479 23.0929 36.8702 23.5403C36.7795 24.0009 36.8184 24.5272 36.9608 25.0404C37.1939 26.1325 37.6989 27.0536 38.4371 27.751C39.1493 28.4879 40.1723 28.9221 41.5061 29.0932C42.7492 29.1985 44.0053 29.4221 45.2226 29.7906C46.4269 30.1722 47.5017 30.7117 48.5247 31.3696C49.5218 32.067 50.4024 32.9486 51.1534 33.9355C51.8915 34.975 52.4743 36.1856 52.8369 37.5278C53.1606 38.6989 53.2124 39.8305 53.044 40.87C52.8369 41.9622 52.4613 42.9491 51.8915 43.8175C51.2959 44.686 50.493 45.3965 49.5606 45.9623C49.211 46.1729 48.8484 46.3439 48.4858 46.5018L49.4182 49.9099L45.637 50.3967L44.7434 47.1598C43.4614 47.1334 42.1924 46.8834 40.9622 46.3571C39.1622 45.686 37.5824 44.4886 36.1709 42.8175L38.3464 39.7515C39.3565 40.9753 40.4701 41.8832 41.7262 42.449C42.7363 42.9491 43.7204 43.1859 44.6657 43.1728C44.86 43.1728 45.0542 43.1596 45.2485 43.1333C45.8053 43.0675 46.3621 42.8701 46.8672 42.5938C47.3592 42.3043 47.7736 41.949 48.0974 41.449C48.434 41.0279 48.6412 40.5147 48.7578 39.8831C48.8614 39.3436 48.8225 38.7515 48.6542 38.0936C48.447 37.3304 48.0974 36.6461 47.683 36.0672C47.2427 35.5145 46.7636 35.054 46.2067 34.6592C45.6499 34.2776 45.0672 34.0145 44.4456 33.7908C43.824 33.6065 43.2413 33.4486 42.6974 33.3697C41.4413 33.2118 40.3018 32.9486 39.2788 32.6328C38.2428 32.3433 37.2846 31.9091 36.4687 31.2906C35.64 30.7117 34.9148 29.9748 34.345 29.0274C33.7105 28.1326 33.2314 26.9747 32.8558 25.5536C32.558 24.4614 32.4674 23.4482 32.6486 22.4482C32.7781 21.5271 33.1278 20.6454 33.6458 19.8691C34.1508 19.1191 34.8242 18.5138 35.6529 18.0269C35.9637 17.8427 36.3004 17.6848 36.65 17.5664L35.5882 13.6846L39.3694 13.1978Z" fill="url(#paint7_linear_290_7102)"/>
<path style="mix-blend-mode:screen" opacity="0.5" d="M42.8658 1.8418L8.08356 38.0013C8.08356 38.0013 14.7396 51.1597 27.443 58.0679L65.359 15.7108C65.359 15.7108 57.421 5.51301 42.8658 1.8418Z" fill="url(#paint8_linear_290_7102)"/>
</g>
<defs>
<linearGradient id="paint0_linear_290_7102" x1="-0.922292" y1="29.6188" x2="68.9601" y2="61.8852" gradientUnits="userSpaceOnUse">
<stop stop-color="#C87A16"/>
<stop offset="0.07" stop-color="#F7AE2D"/>
<stop offset="0.22" stop-color="#F7AE2D"/>
<stop offset="0.32" stop-color="#9B600E"/>
<stop offset="0.52" stop-color="#A15900"/>
<stop offset="0.66" stop-color="#FFF9AB"/>
<stop offset="0.76" stop-color="#FFF9AB"/>
<stop offset="0.87" stop-color="#DCB045"/>
<stop offset="1" stop-color="#8F4E0D"/>
</linearGradient>
<linearGradient id="paint1_linear_290_7102" x1="5.45717" y1="22.6429" x2="76.8328" y2="41.5706" gradientUnits="userSpaceOnUse">
<stop stop-color="#FDE495"/>
<stop offset="0.49" stop-color="#F7EF9B"/>
<stop offset="0.99" stop-color="#FEF2B2"/>
</linearGradient>
<linearGradient id="paint2_linear_290_7102" x1="30.3761" y1="1.63624" x2="54.4032" y2="71.5285" gradientUnits="userSpaceOnUse">
<stop stop-color="#D09A1B"/>
<stop offset="0.39" stop-color="#F1CA56"/>
<stop offset="0.56" stop-color="#EBC452"/>
<stop offset="1" stop-color="#F9DC62"/>
</linearGradient>
<linearGradient id="paint3_linear_290_7102" x1="10.3448" y1="29.3294" x2="70.8076" y2="35.0064" gradientUnits="userSpaceOnUse">
<stop stop-color="#FDE98D"/>
<stop offset="1" stop-color="#FDD03F"/>
</linearGradient>
<linearGradient id="paint4_linear_290_7102" x1="36.2166" y1="22.5579" x2="45.5394" y2="23.4333" gradientUnits="userSpaceOnUse">
<stop stop-color="#CF974B"/>
<stop offset="0.46" stop-color="#CF944C"/>
<stop offset="1" stop-color="#D09647"/>
</linearGradient>
<linearGradient id="paint5_linear_290_7102" x1="30.2956" y1="27.7077" x2="49.7794" y2="29.5371" gradientUnits="userSpaceOnUse">
<stop stop-color="#CF974B"/>
<stop offset="0.46" stop-color="#CF944C"/>
<stop offset="1" stop-color="#D09647"/>
</linearGradient>
<linearGradient id="paint6_linear_290_7102" x1="34.124" y1="44.985" x2="49.7651" y2="46.4536" gradientUnits="userSpaceOnUse">
<stop stop-color="#CF974B"/>
<stop offset="0.46" stop-color="#CF944C"/>
<stop offset="1" stop-color="#D09647"/>
</linearGradient>
<linearGradient id="paint7_linear_290_7102" x1="34.7927" y1="9.87625" x2="49.3769" y2="53.6214" gradientUnits="userSpaceOnUse">
<stop stop-color="#F9FFC9"/>
<stop offset="0.46" stop-color="#FBEFCF"/>
<stop offset="1" stop-color="#FDFBB4"/>
</linearGradient>
<linearGradient id="paint8_linear_290_7102" x1="24.2135" y1="16.4245" x2="48.1002" y2="38.6272" gradientUnits="userSpaceOnUse">
<stop stop-color="white"/>
<stop offset="1"/>
</linearGradient>
<clipPath id="clip0_290_7102">
<rect width="76.2205" height="71.0821" fill="white" transform="translate(0.456421)"/>
</clipPath>
</defs>
</svg>
