<svg width="139" height="19" viewBox="0 0 139 19" fill="none" xmlns="http://www.w3.org/2000/svg">
<path d="M16.92 8.94C15.32 9.02 3.52 9.02 1.7 8.94C1.6 7.24 1.62 2.68 1.7 1.32C2.32 1.26 4.08 1.26 4.8 1.32C4.86 2.52 4.84 4.94 4.8 6.24C6.84 6.16 15.42 6.18 16.92 6.24C17 7 17 8.18 16.92 8.94ZM17.8 11.32C17.88 12.06 17.88 13.08 17.8 13.92C17.38 13.94 16.24 13.96 14.74 13.98C14.76 15.44 14.78 17.76 14.74 18.7C14.08 18.74 12.48 18.74 11.68 18.7C11.64 17.9 11.62 15.52 11.66 14C10.06 14 8.36 14 6.74 13.98C6.76 15.44 6.78 17.76 6.74 18.7C6.08 18.74 4.48 18.74 3.68 18.7C3.64 17.9 3.62 15.5 3.66 13.96C2.26 13.96 1.14 13.94 0.6 13.92C0.52 13.2 0.52 12.1 0.6 11.32C4.76 11.24 15.92 11.28 17.8 11.32ZM21.1184 12.64C20.6784 12.32 19.4784 11.06 19.1584 10.44C20.7184 9.04 23.4784 6.66 25.5784 4.82C25.5584 3.24 25.5784 2.02 25.6184 1.1C26.1584 1.04 28.0784 1.02 28.7784 1.1C28.8184 2.14 28.8384 3.36 28.8184 4.84C30.9584 6.62 33.7584 8.92 35.3384 10.26C35.0184 10.88 33.8584 12.18 33.4384 12.52C32.3584 11.66 29.4784 9.38 27.2384 7.38C25.0184 9.42 22.2184 11.78 21.1184 12.64ZM35.7984 15.52C35.8784 16.26 35.8784 17.28 35.7984 18.12C34.0784 18.24 20.9584 18.2 18.5984 18.12C18.5184 17.4 18.5184 16.3 18.5984 15.52C22.7584 15.44 33.9184 15.48 35.7984 15.52ZM46.8761 18.02C42.3761 18.02 40.8961 15.88 40.8561 11.24C40.8361 8.86 40.8161 2.82 40.8561 1.5C41.7161 1.38 43.2561 1.38 43.9361 1.5C43.9561 2.72 43.9361 9.46 43.9361 11.44C43.9361 14.34 44.7961 15.16 46.8761 15.16C48.9561 15.16 49.8161 14.34 49.8161 11.44C49.8161 9.4 49.8361 2.74 49.8161 1.5C50.6161 1.38 52.1961 1.38 52.8961 1.5C52.9161 2.74 52.9161 8.88 52.8961 11.24C52.8561 15.88 51.3761 18.02 46.8761 18.02ZM60.5163 1.5C63.9563 1.62 65.5763 3.68 65.5763 6.7C65.5763 10.28 63.5563 12 60.2563 12.08C59.7363 12.1 58.7163 12.1 57.8563 12.1C57.8563 14.64 57.8563 17 57.8363 17.72C57.0163 17.84 55.7363 17.84 54.8163 17.72C54.7563 15.1 54.7563 3.68 54.8163 1.5C56.5963 1.46 58.8563 1.44 60.5163 1.5ZM60.1163 9.2C61.8163 9.14 62.4963 8.34 62.4963 6.82C62.4963 5.18 61.8163 4.44 60.1163 4.36C59.3163 4.32 58.5963 4.32 57.8363 4.36C57.8563 4.92 57.8563 6.92 57.8563 9.22C58.5963 9.24 59.2963 9.22 60.1163 9.2ZM77.3308 18.02C72.9108 18.02 70.3508 15.48 70.3508 9.64C70.3508 3.8 72.9708 1.26 77.3908 1.26C79.5108 1.26 81.1108 1.76 82.5708 3.34C82.1508 4.14 81.4508 4.94 80.8108 5.42C80.0108 4.6 78.8508 4.14 77.3908 4.14C74.9508 4.14 73.4308 5.6 73.4308 9.64C73.4308 13.66 74.8908 15.12 77.3308 15.12C78.6708 15.12 79.7508 14.7 80.2508 14.26C80.2508 13.32 80.2508 12.36 80.2708 11.34C79.4908 11.38 78.4908 11.38 77.6708 11.34C77.5908 10.7 77.5908 9.22 77.6708 8.58C79.5308 8.52 81.4508 8.52 83.1908 8.58C83.2108 10.36 83.2308 13.34 83.1908 15.32C81.9508 17.06 79.9308 18.02 77.3308 18.02ZM91.2839 18.02C86.8239 18.02 84.3839 15.56 84.3839 9.64C84.3839 3.76 86.8039 1.26 91.2839 1.26C95.7639 1.26 98.1839 3.76 98.1839 9.64C98.1839 15.68 95.6039 18.02 91.2839 18.02ZM91.2839 15.16C93.7039 15.16 95.1039 13.84 95.1039 9.64C95.1039 5.94 94.0839 4.12 91.2839 4.12C88.7239 4.12 87.4639 5.62 87.4639 9.64C87.4639 13.76 88.8039 15.16 91.2839 15.16ZM120.059 7.18C120.139 7.88 120.139 8.88 120.059 9.66C118.339 9.78 105.219 9.74 102.859 9.66C102.779 8.98 102.779 7.92 102.859 7.18C104.479 7.14 107.139 7.14 109.899 7.14V6.02C107.279 6.02 104.919 6 104.159 5.96C104.059 4.66 104.079 1.72 104.159 0.759999C104.779 0.7 106.499 0.7 107.219 0.759999C107.279 1.36 107.259 2.7 107.219 3.4C109.259 3.32 117.259 3.34 118.759 3.4C118.839 4.16 118.839 5.2 118.759 5.96C118.079 6 115.699 6.02 113.019 6.02C113.019 6.38 113.039 6.76 113.019 7.14C116.299 7.14 119.179 7.16 120.059 7.18ZM106.979 16.46H119.359C119.439 17.12 119.399 18.02 119.359 18.66C118.059 18.76 106.519 18.78 103.959 18.66C103.879 17.56 103.839 15.42 103.959 13.58H115.879V12.82H103.999C103.919 12.16 103.919 11.06 103.999 10.6C109.819 10.54 116.439 10.54 118.899 10.6C118.999 11.38 118.999 14.84 118.899 15.7H106.979V16.46ZM138.398 7.24C138.478 8 138.478 9.32 138.398 10.08C138.078 10.12 137.458 10.14 136.618 10.14C136.618 13.86 136.598 17.46 136.558 18.6C135.938 18.68 134.258 18.66 133.558 18.6C133.478 16.28 133.498 2.92 133.558 0.599999C134.098 0.479999 135.858 0.499999 136.558 0.599999C136.598 1.66 136.618 4.28 136.618 7.2C137.358 7.2 137.958 7.22 138.398 7.24ZM128.218 3.86C128.238 5.24 128.258 7.14 128.238 8.74C129.838 11.02 131.738 13.78 132.838 15.46C132.298 16.18 131.478 16.78 130.578 17.14C129.298 15.4 127.998 13.46 126.678 11.4C125.358 13.82 123.938 16.3 123.158 17.54C122.458 17.36 121.178 16.6 120.678 16.1C121.678 14.32 123.278 11.56 125.018 8.64C124.998 7.02 125.018 5.18 125.038 3.86C123.298 3.86 121.778 3.86 121.198 3.82C121.118 3.02 121.118 1.88 121.198 1.16C122.818 1.12 128.458 1.08 132.038 1.16C132.098 1.92 132.098 3.12 132.038 3.82C131.298 3.84 129.838 3.84 128.218 3.86Z" fill="#323232"/>
</svg>
