<svg width="147" height="165" viewBox="0 0 147 165" fill="none" xmlns="http://www.w3.org/2000/svg">
<path fill-rule="evenodd" clip-rule="evenodd" d="M94.0286 164.686C125.094 136.24 166.045 115.442 135.746 55.9754L114.867 19.7612H31.478L10.6391 55.9754C-19.6601 115.442 21.2515 136.24 52.3566 164.686H94.0343H94.0286Z" fill="#FFF3D5"/>
<path fill-rule="evenodd" clip-rule="evenodd" d="M91.7921 160C119.806 134.483 160.323 113.343 133 60L113 24H34.5L14.4997 59C-12.823 112.343 26.1643 134.483 54.2137 160H91.7972H91.7921Z" fill="url(#paint0_linear_1225_2839)"/>
<path fill-rule="evenodd" clip-rule="evenodd" d="M129.85 45.7864L129.85 45.7866C126.899 48.8619 122.722 50.7868 118.125 50.7868H28.2607C23.6639 50.7868 19.487 48.8619 16.502 45.7866L31.4785 19.7607H73.1953H114.873H114.874L129.85 45.7862L129.855 45.7809C129.853 45.7827 129.852 45.7846 129.85 45.7864Z" fill="#56330D"/>
<path fill-rule="evenodd" clip-rule="evenodd" d="M73.1952 19.7614H34.8485C29.4458 19.7614 25.042 15.3023 25.042 9.88072C25.042 4.45914 29.4458 0 34.8485 0H73.1952H111.496H111.502C116.905 0 121.348 4.45914 121.348 9.88072C121.348 15.3023 116.905 19.7614 111.502 19.7614H111.496H73.1952Z" fill="#56330D"/>
<path opacity="0.7" fill-rule="evenodd" clip-rule="evenodd" d="M73.1953 22.6093H116.712C117.977 22.6093 119.05 21.5728 119.05 20.3029C119.05 18.993 117.977 17.9565 116.712 17.9565H73.1953V22.6093Z" fill="#FACF74"/>
<path opacity="0.4" d="M20.979 59.3013C20.979 59.3013 7.06579 79.4909 13.7634 101.482C20.461 123.474 39.2612 139.641 58.338 152.215C59.8661 153.222 62.4648 142.4 61.9042 140.933C61.3435 139.465 40.7793 116.504 37.3809 79.8116C35.5281 59.7839 20.9855 59.2993 20.9855 59.2993L20.979 59.3013Z" fill="white"/>
<path fill-rule="evenodd" clip-rule="evenodd" d="M29.6402 22.6093H116.713C117.978 22.6093 119.051 21.5728 119.051 20.3029C119.051 18.993 117.978 17.9565 116.713 17.9565H29.6402C28.3747 17.9565 27.3418 18.993 27.3418 20.3029C27.3418 21.5728 28.3747 22.6093 29.6402 22.6093Z" fill="#FFBF38"/>
<defs>
<linearGradient id="paint0_linear_1225_2839" x1="73.6419" y1="24" x2="73.6419" y2="160" gradientUnits="userSpaceOnUse">
<stop stop-color="#FECB2E"/>
<stop offset="1" stop-color="#FDB10B"/>
</linearGradient>
</defs>
</svg>
