<svg width="34" height="39" viewBox="0 0 34 39" fill="none" xmlns="http://www.w3.org/2000/svg">
<path fill-rule="evenodd" clip-rule="evenodd" d="M21.768 38.1256C28.9597 31.5402 38.4401 26.7254 31.4257 12.9587L26.5922 4.57495H7.28727L2.463 12.9587C-4.55138 26.7254 4.91981 31.5402 12.1207 38.1256H21.7693H21.768Z" fill="#F3E8CC"/>
<path fill-rule="evenodd" clip-rule="evenodd" d="M16.9455 4.57446H7.28743L3.82031 10.5995C4.51137 11.3115 5.47833 11.7571 6.54251 11.7571H27.3465C28.2344 11.7571 29.0546 11.4469 29.6988 10.9306C29.8273 10.8278 29.9488 10.7167 30.0625 10.5982L30.0612 10.5996L26.5941 4.57446H26.5937H16.9455Z" fill="#56330D"/>
<path fill-rule="evenodd" clip-rule="evenodd" d="M21.4667 37.1019C21.4667 37.1019 21.4666 37.102 21.4666 37.102H21.4653H16.9432V37.1019H12.4213C11.4811 36.2224 10.4992 35.376 9.52342 34.5349C4.55479 30.252 -0.255657 26.1054 1.38936 18.4136C6.12723 21.6268 10.5682 20.1903 15.4004 18.6273C17.6653 17.8947 20.0161 17.1343 22.5238 16.8119C25.004 16.4921 27.6373 16.6019 30.4934 17.5912C31.1469 17.8175 31.812 18.0898 32.4896 18.4136C34.1425 26.1062 29.3322 30.2528 24.3632 34.5362C23.388 35.3769 22.4066 36.2228 21.4668 37.1019H21.4667Z" fill="url(#paint0_linear_665_4096)"/>
<path fill-rule="evenodd" clip-rule="evenodd" d="M16.9448 4.57485H8.06712C6.81638 4.57485 5.79688 3.54254 5.79688 2.28742C5.79688 1.03231 6.81638 0 8.06712 0H16.9448H25.8113H25.8129C27.0637 0 28.0924 1.03231 28.0924 2.28742C28.0924 3.54254 27.0637 4.57485 25.8129 4.57485H25.8113H16.9448Z" fill="#56330D"/>
<path fill-rule="evenodd" clip-rule="evenodd" d="M16.9443 5.23411H27.0186C27.3115 5.23411 27.5598 4.99417 27.5598 4.70016C27.5598 4.39693 27.3115 4.15698 27.0186 4.15698H16.9443V5.23411Z" fill="#FACF74"/>
<path opacity="0.4" d="M4.85682 13.7282C4.85682 13.7282 1.63585 18.4022 3.18637 23.4932C4.73688 28.5843 9.08921 32.327 13.5056 35.238C13.8593 35.4711 14.4609 32.9659 14.3311 32.6262C14.2014 32.2864 9.44066 26.9707 8.6539 18.4764C8.22498 13.8399 4.85832 13.7277 4.85832 13.7277L4.85682 13.7282Z" fill="white"/>
<path fill-rule="evenodd" clip-rule="evenodd" d="M6.86119 5.23411H27.0188C27.3118 5.23411 27.5601 4.99417 27.5601 4.70016C27.5601 4.39693 27.3118 4.15698 27.0188 4.15698H6.86119C6.56821 4.15698 6.3291 4.39693 6.3291 4.70016C6.3291 4.99417 6.56821 5.23411 6.86119 5.23411Z" fill="#FFBF38"/>
<defs>
<linearGradient id="paint0_linear_665_4096" x1="16.9409" y1="16.6516" x2="16.9409" y2="37.1021" gradientUnits="userSpaceOnUse">
<stop stop-color="#FDCC2F"/>
<stop offset="1" stop-color="#FDAD05"/>
</linearGradient>
</defs>
</svg>
