<svg width="28" height="28" viewBox="0 0 28 28" fill="none" xmlns="http://www.w3.org/2000/svg">
<path d="M22.4048 15.078C22.45 14.726 22.4839 14.374 22.4839 14C22.4839 13.626 22.45 13.274 22.4048 12.922L24.7909 11.107C25.0058 10.942 25.0623 10.645 24.9266 10.403L22.6649 6.597C22.5631 6.421 22.3709 6.322 22.1673 6.322C22.0994 6.322 22.0316 6.333 21.975 6.355L19.1592 7.455C18.5712 7.015 17.9379 6.652 17.2481 6.377L16.8183 3.462C16.7844 3.198 16.5469 3 16.2642 3H11.7408C11.4581 3 11.2206 3.198 11.1867 3.462L10.7569 6.377C10.0671 6.652 9.43383 7.026 8.84578 7.455L6.02994 6.355C5.96209 6.333 5.89424 6.322 5.82639 6.322C5.63414 6.322 5.4419 6.421 5.34012 6.597L3.0784 10.403C2.93139 10.645 2.99924 10.942 3.21411 11.107L5.60022 12.922C5.55498 13.274 5.52106 13.637 5.52106 14C5.52106 14.363 5.55498 14.726 5.60022 15.078L3.21411 16.893C2.99924 17.058 2.9427 17.355 3.0784 17.597L5.34012 21.403C5.4419 21.579 5.63415 21.678 5.8377 21.678C5.90555 21.678 5.9734 21.667 6.02994 21.645L8.84578 20.545C9.43383 20.985 10.0671 21.348 10.7569 21.623L11.1867 24.538C11.2206 24.802 11.4581 25 11.7408 25H16.2642C16.5469 25 16.7844 24.802 16.8183 24.538L17.2481 21.623C17.9379 21.348 18.5712 20.974 19.1592 20.545L21.975 21.645C22.0429 21.667 22.1108 21.678 22.1786 21.678C22.3709 21.678 22.5631 21.579 22.6649 21.403L24.9266 17.597C25.0623 17.355 25.0058 17.058 24.7909 16.893L22.4048 15.078ZM20.1657 13.197C20.2109 13.538 20.2222 13.769 20.2222 14C20.2222 14.231 20.1996 14.473 20.1657 14.803L20.0074 16.046L21.0138 16.816L22.2351 17.74L21.4435 19.071L20.0074 18.51L18.8313 18.048L17.8135 18.796C17.3272 19.148 16.8636 19.412 16.3999 19.599L15.2012 20.072L15.0203 21.315L14.7941 22.8H13.2109L12.996 21.315L12.8151 20.072L11.6164 19.599C11.1301 19.401 10.6778 19.148 10.2254 18.818L9.19635 18.048L7.99764 18.521L6.56145 19.082L5.76985 17.751L6.99118 16.827L7.99764 16.057L7.83932 14.814C7.80539 14.473 7.78278 14.22 7.78278 14C7.78278 13.78 7.80539 13.527 7.83932 13.197L7.99764 11.954L6.99118 11.184L5.76985 10.26L6.56145 8.929L7.99764 9.49L9.17373 9.952L10.1915 9.204C10.6778 8.852 11.1414 8.588 11.6051 8.401L12.8038 7.928L12.9847 6.685L13.2109 5.2H14.7828L14.9977 6.685L15.1786 7.928L16.3773 8.401C16.8636 8.599 17.3159 8.852 17.7683 9.182L18.7973 9.952L19.996 9.479L21.4322 8.918L22.2238 10.249L21.0138 11.184L20.0074 11.954L20.1657 13.197ZM14.0025 9.6C11.5033 9.6 9.47906 11.569 9.47906 14C9.47906 16.431 11.5033 18.4 14.0025 18.4C16.5017 18.4 18.5259 16.431 18.5259 14C18.5259 11.569 16.5017 9.6 14.0025 9.6ZM14.0025 16.2C12.7586 16.2 11.7408 15.21 11.7408 14C11.7408 12.79 12.7586 11.8 14.0025 11.8C15.2464 11.8 16.2642 12.79 16.2642 14C16.2642 15.21 15.2464 16.2 14.0025 16.2Z" fill="black"/>
</svg>
