<svg width="28" height="28" viewBox="0 0 28 28" fill="none" xmlns="http://www.w3.org/2000/svg">
<path d="M15.0961 13.9996L20.7661 8.32955C20.8935 8.18076 20.9601 7.98937 20.9525 7.79362C20.945 7.59787 20.8638 7.41219 20.7253 7.27367C20.5868 7.13515 20.4011 7.054 20.2054 7.04644C20.0096 7.03888 19.8182 7.10547 19.6694 7.23289L13.9994 12.9029L8.32944 7.22511C8.18065 7.09769 7.98925 7.03111 7.79351 7.03867C7.59776 7.04623 7.41207 7.12737 7.27355 7.26589C7.13504 7.40441 7.05389 7.5901 7.04633 7.78584C7.03877 7.98159 7.10535 8.17298 7.23277 8.32177L12.9028 13.9996L7.22499 19.6696C7.14357 19.7393 7.07745 19.8251 7.03076 19.9216C6.98408 20.0181 6.95784 20.1232 6.9537 20.2303C6.94957 20.3374 6.96762 20.4442 7.00672 20.544C7.04582 20.6438 7.10513 20.7345 7.18093 20.8103C7.25673 20.8861 7.34738 20.9454 7.44719 20.9845C7.54699 21.0236 7.65381 21.0416 7.76092 21.0375C7.86804 21.0334 7.97314 21.0071 8.06964 20.9605C8.16613 20.9138 8.25193 20.8476 8.32166 20.7662L13.9994 15.0962L19.6694 20.7662C19.8182 20.8936 20.0096 20.9602 20.2054 20.9527C20.4011 20.9451 20.5868 20.864 20.7253 20.7254C20.8638 20.5869 20.945 20.4012 20.9525 20.2055C20.9601 20.0097 20.8935 19.8183 20.7661 19.6696L15.0961 13.9996Z" fill="#111111"/>
<path fill-rule="evenodd" clip-rule="evenodd" d="M20.7661 8.32955L15.0961 13.9996L20.7661 19.6696C20.8935 19.8183 20.9601 20.0097 20.9525 20.2055C20.945 20.4012 20.8638 20.5869 20.7253 20.7254C20.5868 20.864 20.4011 20.9451 20.2054 20.9527C20.0096 20.9602 19.8182 20.8936 19.6694 20.7662L13.9994 15.0962L8.32166 20.7662C8.25193 20.8476 8.16613 20.9138 8.06964 20.9605C7.97314 21.0071 7.86804 21.0334 7.76092 21.0375C7.65381 21.0416 7.54699 21.0236 7.44719 20.9845C7.34738 20.9454 7.25673 20.8861 7.18093 20.8103C7.10513 20.7345 7.04582 20.6438 7.00672 20.544C6.96762 20.4442 6.94957 20.3374 6.9537 20.2303C6.95784 20.1232 6.98408 20.0181 7.03076 19.9216C7.07745 19.8251 7.14357 19.7393 7.22499 19.6696L12.9028 13.9996L7.23277 8.32177C7.10535 8.17298 7.03877 7.98159 7.04633 7.78584C7.05389 7.5901 7.13504 7.40441 7.27355 7.26589C7.41207 7.12737 7.59776 7.04623 7.79351 7.03867C7.98925 7.03111 8.18065 7.09769 8.32944 7.22511L13.9994 12.9029L19.6694 7.23289C19.8182 7.10547 20.0096 7.03888 20.2054 7.04644C20.4011 7.054 20.5868 7.13515 20.7253 7.27367C20.8638 7.41219 20.945 7.59787 20.9525 7.79362C20.9601 7.98937 20.8935 8.18076 20.7661 8.32955ZM13.9996 12.284L8.62696 6.9039L8.61401 6.89281C8.38153 6.69371 8.08248 6.58968 7.77662 6.60149C7.47076 6.61331 7.18063 6.7401 6.9642 6.95653C6.74776 7.17297 6.62097 7.4631 6.60915 7.76896C6.59734 8.07481 6.70138 8.37387 6.90047 8.60635L6.91136 8.61907L12.2841 13.9991L6.92638 19.3495C6.80559 19.4562 6.70717 19.5859 6.63693 19.731C6.56399 19.8818 6.523 20.046 6.51653 20.2134C6.51007 20.3808 6.53827 20.5477 6.59937 20.7036C6.66046 20.8596 6.75314 21.0012 6.87157 21.1196C6.99001 21.2381 7.13165 21.3307 7.28759 21.3918C7.44355 21.4529 7.61044 21.4811 7.77781 21.4747C7.94517 21.4682 8.1094 21.4272 8.26017 21.3543C8.40526 21.2841 8.53488 21.1858 8.64153 21.0651L13.9992 15.7147L19.372 21.0875L19.3849 21.0985C19.6173 21.2976 19.9164 21.4016 20.2223 21.3898C20.5281 21.378 20.8182 21.2512 21.0347 21.0348C21.2511 20.8184 21.3779 20.5282 21.3897 20.2224C21.4015 19.9165 21.2975 19.6175 21.0984 19.385L21.0874 19.3721L15.7148 13.9996L21.0874 8.62696L21.0984 8.61413C21.2975 8.38164 21.4015 8.08259 21.3897 7.77674C21.3779 7.47088 21.2511 7.18075 21.0347 6.96431C20.8182 6.74788 20.5281 6.62108 20.2223 6.60927C19.9164 6.59746 19.6173 6.70149 19.3849 6.90059L19.372 6.91158L13.9996 12.284Z" fill="#111111"/>
</svg>
