<svg width="74" height="74" viewBox="0 0 74 74" fill="none" xmlns="http://www.w3.org/2000/svg">
<path fill-rule="evenodd" clip-rule="evenodd" d="M45.9654 57.8748C34.438 63.4465 21.3394 56.7384 16.1304 45.9736C10.556 34.4483 17.2654 21.3518 28.037 16.1461C40.4022 10.1658 53.6589 18.0839 58.5048 29.6775C61.5633 41.3073 57.2177 52.4345 45.9654 57.8748ZM72.3152 25.7763C72.2564 25.5892 72.1857 25.414 72.1167 25.2375C72.0246 24.8092 71.9034 24.375 71.7281 23.9324C64.5077 5.69316 44.6094 -4.19368 25.7646 1.70527C6.33936 7.78541 -4.35613 28.9599 1.68656 48.2434C7.77204 67.6631 28.9461 78.3531 48.2371 72.3151C67.6624 66.2338 78.3531 45.0599 72.3152 25.7763Z" fill="#FFCD1B"/>
</svg>
