<svg width="38" height="38" viewBox="0 0 38 38" fill="none" xmlns="http://www.w3.org/2000/svg">
<path d="M19 36.417C25.5584 36.417 30.875 31.1004 30.875 24.542C30.875 17.9836 25.5584 12.667 19 12.667C12.4416 12.667 7.125 17.9836 7.125 24.542C7.125 31.1004 12.4416 36.417 19 36.417Z" fill="#FFCD1B"/>
<path d="M20.1712 19.7286L20.9312 21.3119C21.0281 21.5019 21.1693 21.6659 21.343 21.7899C21.5166 21.9139 21.7175 21.9943 21.9287 22.0244L23.6387 22.2777C23.8795 22.3142 24.1054 22.4169 24.2913 22.5744C24.4771 22.7319 24.6155 22.9379 24.6911 23.1694C24.7666 23.401 24.7763 23.649 24.7191 23.8858C24.6619 24.1225 24.54 24.3387 24.367 24.5102L23.1162 25.7136C22.9672 25.8628 22.8563 26.0458 22.7929 26.247C22.7295 26.4482 22.7155 26.6616 22.752 26.8694L23.037 28.5002C23.0822 28.7419 23.0579 28.9914 22.9669 29.2197C22.8759 29.4481 22.7219 29.6459 22.5229 29.7902C22.3239 29.9345 22.088 30.0193 21.8426 30.0348C21.5973 30.0503 21.3526 29.9958 21.137 29.8777L19.5537 29.0702C19.3669 28.9769 19.1609 28.9282 18.952 28.9282C18.7432 28.9282 18.5372 28.9769 18.3503 29.0702L16.767 29.8777C16.5548 29.9706 16.3216 30.0049 16.0916 29.9773C15.8616 29.9496 15.6432 29.8609 15.459 29.7203C15.2748 29.5798 15.1316 29.3925 15.0443 29.178C14.9569 28.9635 14.9285 28.7294 14.962 28.5002L15.247 26.9169C15.2835 26.7091 15.2695 26.4957 15.2061 26.2945C15.1427 26.0933 15.0318 25.9103 14.8828 25.7611L13.632 24.5577C13.4591 24.3862 13.3372 24.17 13.2799 23.9333C13.2227 23.6965 13.2324 23.4485 13.308 23.2169C13.3835 22.9854 13.5219 22.7794 13.7078 22.6219C13.8936 22.4644 14.1195 22.3617 14.3603 22.3252L16.0703 22.0719C16.2816 22.0418 16.4825 21.9614 16.6561 21.8374C16.8297 21.7134 16.9709 21.5494 17.0678 21.3594L17.8278 19.7761C17.9333 19.5574 18.0972 19.3723 18.3014 19.2411C18.5057 19.1099 18.7423 19.0379 18.9849 19.033C19.2276 19.0281 19.4669 19.0905 19.6763 19.2132C19.8857 19.336 20.057 19.5144 20.1712 19.7286Z" fill="white"/>
<path d="M31.6663 5.54183V9.50016C31.6681 10.0205 31.5669 10.536 31.3686 11.0169C31.1702 11.4979 30.8786 11.9349 30.5105 12.3027L28.6738 14.076C26.0406 11.6412 22.5861 10.2889 18.9997 10.2889C15.4133 10.2889 11.9588 11.6412 9.32551 14.076L7.48884 12.2393C6.76087 11.5121 6.34606 10.5291 6.33301 9.50016V5.54183C6.33301 4.49201 6.75005 3.4852 7.49238 2.74287C8.23471 2.00053 9.24153 1.5835 10.2913 1.5835H27.708C28.7578 1.5835 29.7646 2.00053 30.507 2.74287C31.2493 3.4852 31.6663 4.49201 31.6663 5.54183Z" fill="#FFCD1B"/>
</svg>
