<svg width="40" height="40" viewBox="0 0 40 40" fill="none" xmlns="http://www.w3.org/2000/svg">
<path d="M34.8837 16.0002L33.9837 15.1668C33.7533 14.9571 33.5724 14.6988 33.4542 14.4105C33.336 14.1222 33.2835 13.8113 33.3003 13.5002V12.2835C33.3258 11.5405 33.1985 10.8001 32.9263 10.1082C32.6541 9.4164 32.2428 8.78777 31.7178 8.26127C31.1929 7.73478 30.5655 7.32162 29.8745 7.04736C29.1834 6.7731 28.4435 6.64359 27.7003 6.66683H26.467C26.1554 6.68861 25.8429 6.6383 25.5539 6.51979C25.2648 6.40128 25.007 6.21777 24.8003 5.9835L23.967 5.0835C23.4626 4.53356 22.8497 4.09413 22.167 3.79292C21.4843 3.49172 20.7466 3.33529 20.0003 3.3335C19.244 3.33767 18.4968 3.49825 17.8055 3.80516C17.1143 4.11206 16.494 4.55864 15.9837 5.11683L15.167 6.01683C14.9596 6.25011 14.7016 6.43294 14.4127 6.55136C14.1239 6.66979 13.8118 6.72068 13.5003 6.70016L12.3003 6.66683C11.5478 6.63899 10.7975 6.76506 10.0954 7.03732C9.39323 7.30957 8.75407 7.72227 8.21701 8.25016C7.68982 8.78279 7.27964 9.41961 7.01274 10.1199C6.74583 10.8202 6.62808 11.5684 6.66701 12.3168V13.5335C6.68879 13.8451 6.63847 14.1576 6.51997 14.4466C6.40146 14.7357 6.21795 14.9935 5.98367 15.2002L5.08367 16.0335C4.52739 16.5426 4.08316 17.1618 3.77923 17.8519C3.47531 18.542 3.31836 19.2878 3.31836 20.0418C3.31836 20.7959 3.47531 21.5417 3.77923 22.2318C4.08316 22.9218 4.52739 23.5411 5.08367 24.0502L5.98367 24.8835C6.21896 25.0893 6.40317 25.347 6.52176 25.6363C6.64035 25.9255 6.69008 26.2384 6.66701 26.5502V27.7668C6.62767 28.5232 6.74836 29.2793 7.0212 29.9858C7.29403 30.6923 7.71287 31.3333 8.25034 31.8668C8.79034 32.3736 9.42797 32.7651 10.1243 33.0173C10.8206 33.2694 11.561 33.377 12.3003 33.3335H13.517C13.8281 33.3166 14.1391 33.3692 14.4273 33.4874C14.7156 33.6056 14.974 33.7864 15.1837 34.0168L16.0003 34.9168C16.5094 35.4731 17.1287 35.9173 17.8187 36.2213C18.5088 36.5252 19.2546 36.6821 20.0087 36.6821C20.7627 36.6821 21.5085 36.5252 22.1986 36.2213C22.8887 35.9173 23.508 35.4731 24.017 34.9168L24.8503 34.0168C25.057 33.7826 25.3148 33.599 25.6039 33.4805C25.8929 33.362 26.2054 33.3117 26.517 33.3335H27.7503C28.5046 33.3718 29.2585 33.2514 29.9633 32.9801C30.6682 32.7089 31.3083 32.2928 31.8423 31.7588C32.3763 31.2248 32.7924 30.5847 33.0637 29.8798C33.3349 29.175 33.4553 28.4211 33.417 27.6668V26.4502C33.4025 26.1393 33.4561 25.8291 33.5741 25.5412C33.6922 25.2533 33.8718 24.9947 34.1003 24.7835L35.0003 23.9668C35.5612 23.4605 36.0096 22.8422 36.3164 22.1517C36.6233 21.4612 36.7819 20.7141 36.7819 19.9585C36.7819 19.2029 36.6233 18.4557 36.3164 17.7653C36.0096 17.0748 35.5612 16.4565 35.0003 15.9502L34.8837 16.0002ZM26.167 17.8502L19.5003 24.5168C19.1899 24.8247 18.7709 24.9983 18.3337 25.0002C18.1143 25.0014 17.8969 24.9594 17.6938 24.8764C17.4908 24.7935 17.3061 24.6713 17.1503 24.5168L13.817 21.1835C13.544 20.8647 13.4013 20.4545 13.4175 20.0351C13.4337 19.6156 13.6076 19.2177 13.9044 18.9209C14.2012 18.6241 14.5991 18.4502 15.0186 18.434C15.438 18.4178 15.8482 18.5605 16.167 18.8335L18.3337 20.9835L23.817 15.5002C24.1293 15.1897 24.5517 15.0155 24.992 15.0155C25.4323 15.0155 25.8547 15.1897 26.167 15.5002C26.4774 15.8124 26.6517 16.2349 26.6517 16.6752C26.6517 17.1155 26.4774 17.5379 26.167 17.8502Z" fill="#FFCD1B"/>
</svg>
