<svg width="20" height="20" viewBox="0 0 20 20" fill="none" xmlns="http://www.w3.org/2000/svg">
<path d="M17.8857 19.3708L11.2259 12.7251C10.7353 13.1294 10.1594 13.4456 9.49813 13.6735C8.83686 13.9014 8.12584 14.0153 7.36506 14.0153C5.49641 14.0153 3.9142 13.3668 2.61845 12.0697C1.32269 10.7726 0.674805 9.20771 0.674805 7.37509C0.674805 5.54247 1.32336 3.97761 2.62048 2.68051C3.91758 1.38341 5.48661 0.734863 7.32756 0.734863C9.16849 0.734863 10.7333 1.38341 12.0221 2.68051C13.3109 3.97761 13.9553 5.54372 13.9553 7.37884C13.9553 8.11184 13.8457 8.80461 13.6265 9.45716C13.4073 10.1097 13.0785 10.7229 12.6401 11.2968L19.3249 17.9316L17.8857 19.3708ZM7.34503 12.0349C8.63935 12.0349 9.73456 11.5804 10.6307 10.6715C11.5268 9.76267 11.9748 8.66386 11.9748 7.37509C11.9748 6.08632 11.5261 4.98751 10.6286 4.07864C9.7311 3.16976 8.63658 2.71531 7.34503 2.71531C6.0396 2.71531 4.93161 3.16976 4.02108 4.07864C3.11055 4.98751 2.65528 6.08632 2.65528 7.37509C2.65528 8.66386 3.10985 9.76267 4.019 10.6715C4.92815 11.5804 6.03683 12.0349 7.34503 12.0349Z" fill="#FF881B"/>
</svg>
