<svg width="31" height="31" viewBox="0 0 31 31" fill="none" xmlns="http://www.w3.org/2000/svg">
<path d="M24.55 7.4752H24.05L19.825 3.2502C19.4875 2.9127 18.9375 2.9127 18.5875 3.2502C18.25 3.5877 18.25 4.1377 18.5875 4.4877L21.575 7.4752H9.425L12.4125 4.4877C12.75 4.1502 12.75 3.6002 12.4125 3.2502C12.075 2.9127 11.525 2.9127 11.175 3.2502L6.9625 7.4752H6.4625C5.3375 7.4752 3 7.4752 3 10.6752C3 11.8877 3.25 12.6877 3.775 13.2127C4.075 13.5252 4.4375 13.6877 4.825 13.7752C5.1875 13.8627 5.575 13.8752 5.95 13.8752H25.05C25.4375 13.8752 25.8 13.8502 26.15 13.7752C27.2 13.5252 28 12.7752 28 10.6752C28 7.4752 25.6625 7.4752 24.55 7.4752Z" fill="#FFCD1B"/>
<path d="M24.3123 15.5H6.58733C5.81233 15.5 5.22483 16.1875 5.34983 16.95L6.39983 23.375C6.74983 25.525 7.68733 28 11.8498 28H18.8623C23.0748 28 23.8248 25.8875 24.2748 23.525L25.5373 16.9875C25.6873 16.2125 25.0998 15.5 24.3123 15.5ZM15.4998 24.875C12.5748 24.875 10.1873 22.4875 10.1873 19.5625C10.1873 19.05 10.6123 18.625 11.1248 18.625C11.6373 18.625 12.0623 19.05 12.0623 19.5625C12.0623 21.4625 13.5998 23 15.4998 23C17.3998 23 18.9373 21.4625 18.9373 19.5625C18.9373 19.05 19.3623 18.625 19.8748 18.625C20.3873 18.625 20.8123 19.05 20.8123 19.5625C20.8123 22.4875 18.4248 24.875 15.4998 24.875Z" fill="#FFCD1B"/>
</svg>
