<svg width="36" height="36" viewBox="0 0 36 36" fill="none" xmlns="http://www.w3.org/2000/svg">
<path d="M22.5 12C22.5 10.606 22.5 9.90905 22.3847 9.32946C21.9113 6.94931 20.0507 5.08873 17.6705 4.61529C17.0909 4.5 16.394 4.5 15 4.5L13.5 4.5C10.7044 4.5 9.30653 4.5 8.2039 4.95672C6.73373 5.56569 5.56569 6.73373 4.95672 8.2039C4.5 9.30652 4.5 10.7043 4.5 13.5L4.5 22.5C4.5 25.2956 4.5 26.6935 4.95672 27.7961C5.56568 29.2663 6.73373 30.4343 8.2039 31.0433C9.30652 31.5 10.7043 31.5 13.5 31.5L15 31.5C16.394 31.5 17.0909 31.5 17.6705 31.3847C20.0507 30.9113 21.9113 29.0507 22.3847 26.6705C22.5 26.0909 22.5 25.394 22.5 24" stroke="white" stroke-width="3" stroke-linecap="round" stroke-linejoin="round"/>
<path d="M16.5 18L31.5 18" stroke="white" stroke-width="3" stroke-linecap="round" stroke-linejoin="round"/>
<path d="M27 13.5L31.5 18L27 22.5" stroke="white" stroke-width="3" stroke-linecap="round" stroke-linejoin="round"/>
</svg>
