<svg width="74" height="74" viewBox="0 0 74 74" fill="none" xmlns="http://www.w3.org/2000/svg">
<path fill-rule="evenodd" clip-rule="evenodd" d="M47.4243 37.2329C54.4443 30.5199 61.4643 23.807 68.4843 17.0947C75.3145 10.5642 66.2869 -1.21118 59.3695 5.4041C51.9905 12.4607 44.6104 19.5167 37.2315 26.5732C30.5185 19.5533 23.8055 12.5339 17.0932 5.51336C10.5627 -1.31678 -1.21343 7.70889 5.4025 14.6275C12.4591 22.0076 19.5158 29.3865 26.5718 36.7659C19.5518 43.4789 12.5318 50.1918 5.51115 56.9048C-1.31903 63.4352 7.70853 75.2106 14.626 68.5953C22.0055 61.5388 29.385 54.4822 36.7652 47.4256C43.4775 54.4456 50.1905 61.4655 56.9035 68.4861C63.4328 75.3162 75.2089 66.2899 68.5942 59.3719C61.5369 51.9918 54.4809 44.6124 47.4243 37.2329Z" fill="#FF3600"/>
</svg>
